<svg version="1.2" xmlns="http://www.w3.org/2000/svg" viewBox="0 0 134 27" width="134" height="27">
	<title>logo-svg</title>
	<style>
		.s0 { opacity: .8;fill: #ffffff } 
		.s1 { fill: #ffffff } 
	</style>
	<g style="opacity: .9">
		<path class="s0" d="m19.9 6.9c0.9-1.2 2.8-0.9 3.4 0.5l3.1 8.2c0.6 1.5-0.6 2.9-2.2 2.7l-8.6-1.4c-1.5-0.2-2.2-2-1.2-3.2z"/>
		<path class="s1" d="m9.9 5.5c0.5-1.4 2.4-1.8 3.4-0.7l8.3 9.4c1 1.2 0.4 3-1.1 3.3l-12.3 2.5c-1.5 0.3-2.7-1.1-2.3-2.6z"/>
		<path id="                Feedback" class="s1" aria-label="                Feedback"  d="m85.6 16v-7.6h4.3v0.9h-3.3v2.2h3v0.9h-3v3.6zm10.2-3.1v0.5h-4.3q0.1 0.9 0.6 1.5 0.5 0.5 1.5 0.5 0.5 0 1-0.2 0.5-0.1 1-0.4v0.9q-0.5 0.2-1 0.3-0.6 0.1-1.1 0.1-1.4 0-2.2-0.7-0.7-0.8-0.7-2.2 0-1.4 0.7-2.2 0.8-0.8 2-0.8 1.2 0 1.9 0.7 0.6 0.8 0.6 2zm-4.2-0.2l3.3-0.1q0-0.7-0.4-1.2-0.5-0.4-1.2-0.4-0.7 0-1.2 0.4-0.5 0.4-0.5 1.3zm10.6 0.2v0.5h-4.3q0.1 0.9 0.6 1.5 0.5 0.5 1.5 0.5 0.5 0 1-0.2 0.5-0.1 1-0.4v0.9q-0.5 0.2-1 0.3-0.6 0.1-1.1 0.1-1.4 0-2.2-0.7-0.7-0.8-0.7-2.2 0-1.4 0.7-2.2 0.8-0.8 2-0.8 1.2 0 1.9 0.7 0.6 0.8 0.6 2zm-4.2-0.2l3.3-0.1q0-0.7-0.4-1.2-0.5-0.4-1.1-0.4-0.8 0-1.3 0.4-0.5 0.4-0.5 1.3zm9.5-1.5v-3.1h0.9v7.9h-0.9v-0.9q-0.3 0.6-0.7 0.8-0.5 0.2-1.1 0.2-1.1 0-1.7-0.8-0.6-0.8-0.6-2.1 0-1.4 0.6-2.2 0.6-0.8 1.7-0.8 0.6 0 1.1 0.2 0.4 0.3 0.7 0.8zm-3.2 2q0 1 0.4 1.6 0.5 0.6 1.2 0.6 0.8 0 1.2-0.6 0.4-0.6 0.4-1.6 0-1.1-0.4-1.7-0.4-0.5-1.2-0.5-0.7 0-1.2 0.5-0.4 0.6-0.4 1.7zm10.2 0q0-1.1-0.5-1.7-0.4-0.5-1.1-0.5-0.8 0-1.2 0.5-0.4 0.6-0.4 1.7 0 1 0.4 1.6 0.4 0.6 1.2 0.6 0.7 0 1.1-0.6 0.5-0.6 0.5-1.6zm-3.2-5.1v3.1q0.3-0.5 0.7-0.8 0.5-0.2 1.1-0.2 1 0 1.7 0.8 0.6 0.8 0.6 2.2 0 1.3-0.6 2.1-0.7 0.8-1.7 0.8-0.6 0-1.1-0.2-0.4-0.2-0.7-0.8v0.9h-1v-7.9zm9.2 5h-0.9q-1.1 0-1.6 0.3-0.4 0.3-0.4 0.9 0 0.5 0.3 0.8 0.4 0.3 0.9 0.3 0.8 0 1.3-0.6 0.4-0.5 0.4-1.5zm1-0.3v3.2h-1v-0.9q-0.3 0.6-0.8 0.8-0.4 0.3-1.1 0.3-0.9 0-1.4-0.5-0.5-0.5-0.5-1.3 0-1 0.6-1.5 0.7-0.5 1.9-0.5h1.3v-0.1q0-0.6-0.4-1-0.4-0.3-1.2-0.3-0.5 0-0.9 0.1-0.5 0.1-0.9 0.3v-0.8q0.5-0.2 1-0.3 0.5-0.1 0.9-0.1 1.3 0 1.9 0.6 0.6 0.7 0.6 2zm6-2.3v0.9q-0.4-0.2-0.8-0.3-0.4-0.1-0.8-0.1-0.9 0-1.4 0.6-0.5 0.5-0.5 1.6 0 1 0.5 1.6 0.5 0.6 1.4 0.6 0.4 0 0.8-0.1 0.4-0.2 0.8-0.4v0.9q-0.4 0.2-0.8 0.3-0.4 0.1-0.9 0.1-1.3 0-2-0.9-0.8-0.8-0.8-2.1 0-1.4 0.8-2.2 0.7-0.8 2.1-0.8 0.4 0 0.8 0.1 0.4 0.1 0.8 0.2zm1.6 5.5v-7.9h0.9v4.7l2.8-2.5h1.2l-3 2.7 3.1 3h-1.2l-2.9-2.8v2.8z"/>
		<path id="Company" class="s1" aria-label="Company"  d="m36.5 14v1.6q-0.5 0.3-1.1 0.4-0.6 0.1-1.2 0.1-1.9 0-3-1-1.1-1.1-1.1-2.9 0-1.8 1.1-2.9 1.1-1 3-1 0.6 0 1.2 0.1 0.6 0.2 1.1 0.4v1.6q-0.5-0.4-1-0.5-0.6-0.2-1.1-0.2-1.1 0-1.7 0.7-0.6 0.6-0.6 1.8 0 1.2 0.6 1.9 0.6 0.6 1.7 0.6 0.5 0 1.1-0.1 0.5-0.2 1-0.6zm4.3-2.5q-0.6 0-0.9 0.4-0.4 0.4-0.4 1.3 0 0.8 0.4 1.2 0.3 0.4 0.9 0.4 0.6 0 0.9-0.4 0.3-0.4 0.3-1.2 0-0.9-0.3-1.3-0.3-0.4-0.9-0.4zm0-1.3q1.5 0 2.3 0.8 0.8 0.8 0.8 2.2 0 1.4-0.8 2.2-0.8 0.7-2.3 0.7-1.5 0-2.3-0.7-0.8-0.8-0.8-2.2 0-1.4 0.8-2.2 0.8-0.8 2.3-0.8zm9.7 1.1q0.3-0.6 0.8-0.8 0.5-0.3 1.1-0.3 0.9 0 1.5 0.6 0.5 0.6 0.5 1.7v3.5h-1.9v-3q0 0 0-0.1 0.1-0.1 0.1-0.2 0-0.6-0.2-0.9-0.2-0.3-0.6-0.3-0.5 0-0.8 0.5-0.3 0.4-0.3 1.2v2.8h-1.8v-3q0-0.9-0.2-1.2-0.1-0.3-0.6-0.3-0.5 0-0.8 0.5-0.3 0.4-0.3 1.2v2.8h-1.8v-5.7h1.8v0.8q0.4-0.4 0.8-0.7 0.4-0.2 1-0.2 0.6 0 1 0.3 0.5 0.2 0.7 0.8zm7.4 3.9v3h-1.8v-7.9h1.8v0.8q0.4-0.5 0.8-0.7 0.5-0.2 1.1-0.2 1 0 1.7 0.8 0.7 0.8 0.7 2.2 0 1.3-0.7 2.1-0.7 0.8-1.7 0.8-0.6 0-1.1-0.2-0.4-0.2-0.8-0.7zm1.2-3.7q-0.6 0-0.9 0.4-0.3 0.5-0.3 1.3 0 0.8 0.3 1.2 0.3 0.4 0.9 0.4 0.6 0 0.9-0.4 0.3-0.4 0.3-1.2 0-0.9-0.3-1.3-0.3-0.4-0.9-0.4zm7.9 1.9h-0.9q-0.6 0-0.9 0.2-0.3 0.2-0.3 0.6 0 0.3 0.3 0.5 0.2 0.2 0.6 0.2 0.5 0 0.9-0.3 0.3-0.4 0.3-1zm1.8-0.6v3.2h-1.8v-0.8q-0.4 0.5-0.8 0.7-0.5 0.3-1.1 0.3-0.9 0-1.5-0.6-0.5-0.5-0.5-1.3 0-1 0.7-1.5 0.7-0.4 2.1-0.4h1.1v-0.2q0-0.4-0.3-0.6-0.4-0.2-1.1-0.2-0.6 0-1.1 0.1-0.5 0.1-0.9 0.4v-1.4q0.6-0.2 1.2-0.2 0.6-0.1 1.1-0.1 1.6 0 2.3 0.6 0.6 0.6 0.6 2zm7.5-0.3v3.5h-1.9v-0.6-2q0-0.8 0-1.1 0-0.2-0.1-0.4-0.1-0.1-0.3-0.2-0.2-0.1-0.4-0.1-0.6 0-0.9 0.4-0.3 0.4-0.3 1.2v2.8h-1.9v-5.7h1.9v0.9q0.4-0.5 0.8-0.8 0.5-0.2 1.1-0.2 0.9 0 1.4 0.6 0.6 0.6 0.6 1.7zm3.4 3.7l-2.5-5.9h1.8l1.5 3.9 1.3-3.9h1.9l-2.4 6.2q-0.4 1-0.9 1.4-0.4 0.4-1.2 0.4h-1.1v-1.2h0.6q0.4 0 0.7-0.2 0.2-0.1 0.3-0.5z"/>
	</g>
</svg>